
    <svg
      width="131"
      height="44"
      viewBox="0 0 131 44"
      fill="none"
      xmlns="http://www.w3.org/2000/svg">
      <path
        d="M18.7354 24.2939C18.6646 23.789 18.2014 22.5235 18.2014 22.5235L17.9525 21.258C17.9163 20.8602 18.2377 20.6428 18.5228 20.4623C19.1294 20.4991 19.6634 20.3536 20.1974 20.6077C20.6606 20.7164 20.8386 21.1494 20.982 21.5472C21.0166 22.0538 22.3352 26.1729 22.3352 26.1729L25.2922 34.3059C25.6499 35.2822 27.0394 38.7493 27.4663 39.6905L28.1074 40.7387C28.1743 40.8904 28.272 41.0259 28.3942 41.1366C28.4981 41.282 28.6415 41.4258 28.6068 41.6414C28.536 41.9674 28.1799 41.7869 27.8239 41.715C27.1119 41.6063 26.5053 41.1733 26.0059 40.63C25.8988 40.4511 24.7236 39.2559 23.7247 37.0893C23.7247 37.0893 21.9792 33.7642 20.7315 30.2235C20.1628 28.5234 18.7354 24.2939 18.7354 24.2939Z"
        fill="#8C99B2"
      />
      <path
        d="M30.7699 42.9999V22.6363H35.0753V31.615H35.3438L40.2756 17.5L47.8324 22.6363L40.2756 31.7542L47.9219 42.9999H42.7713L37.1932 34.6278L35.0753 37.213V42.9999H30.7699Z"
        fill="black"
      />
      <path
        d="M50.0746 42.9999V22.6363L54.6484 17.5L54.38 31.615H54.6484L61.9766 22.6363H67.1371L59.5803 31.7542L67.2266 42.9999H62.076L56.4979 34.6278L54.38 37.213V42.9999H50.0746Z"
        fill="black"
      />
      <path
        d="M73.5355 34.1704V42.9999H69.2997L73.9134 17.5H78.1591L73.4162 30.4218H73.5952C73.9399 29.5203 74.4967 28.8143 75.2656 28.3039C76.0346 27.7869 76.9991 27.5283 78.1591 27.5283C79.2197 27.5283 80.1444 27.7603 80.9333 28.2244C81.7287 28.6817 82.3452 29.3413 82.7827 30.2031C83.2268 31.0582 83.4456 32.0823 83.4389 33.2755V42.9999H79.2031V34.0312C79.2098 33.0899 78.9711 32.3574 78.4872 31.8337C78.01 31.3101 77.3405 31.0482 76.4787 31.0482C75.902 31.0482 75.3916 31.1709 74.9475 31.4161C74.51 31.6614 74.1653 32.0193 73.9134 32.49C73.6681 32.954 73.5422 33.5141 73.5355 34.1704Z"
        fill="black"
      />
      <path
        d="M93.673 43.2982C92.1284 43.2982 90.7927 42.9701 89.6658 42.3138C88.5456 41.651 87.6805 40.7296 87.0707 39.5496C86.4608 38.3631 86.1559 36.9876 86.1559 35.4232C86.1559 33.8456 86.4608 32.4668 87.0707 31.2869C87.6805 30.1003 88.5456 29.1789 89.6658 28.5227C90.7927 27.8598 92.1284 27.5283 93.673 27.5283C95.2175 27.5283 96.5499 27.8598 97.6701 28.5227C98.797 29.1789 99.6654 30.1003 100.275 31.2869C100.885 32.4668 101.19 33.8456 101.19 35.4232C101.19 36.9876 100.885 38.3631 100.275 39.5496C99.6654 40.7296 98.797 41.651 97.6701 42.3138C96.5499 42.9701 95.2175 43.2982 93.673 43.2982ZM93.6928 40.017C94.3955 40.017 94.9821 39.8181 95.4528 39.4204C95.9234 39.016 96.2781 38.4658 96.5167 37.7698C96.762 37.0738 96.8846 36.2817 96.8846 35.3934C96.8846 34.5051 96.762 33.713 96.5167 33.017C96.2781 32.321 95.9234 31.7708 95.4528 31.3664C94.9821 30.962 94.3955 30.7599 93.6928 30.7599C92.9836 30.7599 92.387 30.962 91.9031 31.3664C91.4258 31.7708 91.0645 32.321 90.8193 33.017C90.5806 33.713 90.4613 34.5051 90.4613 35.3934C90.4613 36.2817 90.5806 37.0738 90.8193 37.7698C91.0645 38.4658 91.4258 39.016 91.9031 39.4204C92.387 39.8181 92.9836 40.017 93.6928 40.017Z"
        fill="black"
      />
      <path
        d="M103.944 42.9999V27.7272H108.051V30.392H108.21C108.488 29.4441 108.956 28.7281 109.612 28.2442C110.268 27.7537 111.024 27.5085 111.879 27.5085C112.091 27.5085 112.32 27.5217 112.565 27.5482C112.81 27.5747 113.026 27.6112 113.211 27.6576V31.4161C113.012 31.3565 112.737 31.3034 112.386 31.257C112.035 31.2106 111.713 31.1874 111.422 31.1874C110.798 31.1874 110.242 31.3233 109.751 31.5951C109.267 31.8602 108.883 32.2315 108.598 32.7087C108.319 33.186 108.18 33.7362 108.18 34.3593V42.9999H103.944Z"
        fill="black"
      />
      <path
        d="M111.572 18.7734V17.5454H118.89V18.7734H115.94V27H114.518V18.7734H111.572Z"
        fill="black"
      />
      <path
        d="M120.506 17.5454H122.238L125.248 24.8948H125.358L128.368 17.5454H130.099V27H128.742V20.1583H128.655L125.866 26.9861H124.74L121.951 20.1537H121.864V27H120.506V17.5454Z"
        fill="black"
      />
      <path
        d="M18.6646 25.5945C18.5575 26.2448 18.4504 25.1615 17.168 27.7627C15.6005 31.0158 14.9593 32.7494 14.9593 32.7494C14.8868 32.9299 14.816 33.2576 14.8522 33.2576C15.0302 33.2576 15.2082 33.184 16.4197 32.9316C17.6328 32.6424 18.808 32.7143 18.808 32.7143C19.9486 32.6792 20.5881 33.8343 20.9458 34.5214C21.1238 34.8457 21.1601 34.956 21.1238 35.1734C21.0892 35.6414 20.8749 35.8237 20.5189 36.0042C20.314 36.0858 20.0887 36.0987 19.8761 36.041C19.8761 36.041 20.0195 35.8588 19.9124 35.7869C19.3041 35.7869 13.7825 36.5107 13.499 36.9437C13.499 36.9437 13.1776 37.4486 12.4655 39.3627C12.2513 39.9444 11.8227 41.0645 11.9299 41.5677C12.0007 41.8569 11.6101 41.785 11.6447 41.785C11.503 41.785 11.3958 41.6044 11.2178 41.5325C11.1816 41.4607 10.6113 41.5677 10.4316 40.3038C10.2536 39.0384 10.3607 37.3065 11.1436 34.7738L12.1062 31.7397C12.9979 29.0649 13.3869 28.2341 13.3869 28.2341C13.7083 27.2578 14.4566 25.8118 14.4566 25.8118C14.8868 25.0528 15.3862 24.1852 16.2417 23.9328C17.8092 23.7155 18.7355 25.1966 18.6646 25.5945Z"
        fill="#031D51"
      />
      <path
        d="M19.1641 15.5106C19.6981 16.089 18.8427 16.6307 19.3042 17.0653C19.4476 17.2459 19.3042 17.7524 19.3767 17.861C19.3421 17.8243 19.6981 17.9697 19.5201 18.1135C19.1641 18.3308 18.7718 18.294 18.4866 18.294C18.3386 18.2872 18.1934 18.2502 18.0597 18.1854C17.7021 18.2221 17.4532 18.2221 17.2389 18.1135C16.812 17.861 16.5631 17.4264 16.4906 16.9199C16.4906 16.5956 16.6323 16.1977 16.7378 16.0539C16.9884 15.6193 17.2735 15.295 17.8438 15.1496C18.3449 15.1144 18.8427 15.2231 19.1641 15.5106Z"
        fill="#031D51"
      />
      <path
        d="M11.8944 10.8074C11.4746 11.0904 10.9712 11.1312 10.4513 11.2295C7.72145 11.7453 4.95498 12.2817 2.22516 12.7975C2.03848 12.8057 1.90849 12.8302 1.73843 12.7809C1.53172 12.752 1.45158 12.6042 1.53809 12.4113C1.60798 12.2759 1.69449 12.083 1.82107 11.964C3.91276 9.83053 5.9678 7.71753 8.03946 5.54707C8.48908 5.05471 9.07552 4.72661 9.76213 4.58328C12.6185 3.94845 15.4749 3.31362 18.3313 2.67879C18.518 2.67068 18.6846 2.62561 18.8913 2.65444C19.1347 2.66278 19.2349 2.84755 19.1117 3.06094C19.0418 3.19637 18.9719 3.3318 18.8454 3.45078C16.8304 5.63769 14.8354 7.86155 12.7838 10.069C12.5341 10.4013 12.2609 10.6023 11.8944 10.8074Z"
        fill="black"
      />
      <path
        d="M7.09638 13.6728C6.6896 13.8041 6.73652 14.067 6.83674 14.2519C7.35786 15.2135 7.85893 16.138 8.36001 17.0626C8.5404 17.3954 8.75062 17.5188 9.09089 17.6175C9.20431 17.6504 9.35441 17.6628 9.46783 17.6958C10.275 17.7742 11.112 17.6432 11.9089 17.4382C13.5028 17.0282 14.9363 16.3223 16.2662 15.337C17.1228 14.713 17.8992 13.9411 18.5421 13.0993C18.8086 12.7092 19.0751 12.3191 19.1714 11.8795C19.2546 11.592 19.2277 11.3661 19.0507 11.1277C18.6063 10.2196 18.1053 9.29508 17.6042 8.37053C17.3236 7.85279 16.997 8.13197 16.8704 8.25104C15.8275 9.41308 14.6912 10.5792 13.6483 11.7412C13.1085 12.3325 12.4851 12.6814 11.7415 12.8084L7.09638 13.6728Z"
        fill="black"
      />
      <path
        d="M18.8634 5.97335C18.7732 6.07217 18.7565 6.12984 18.8369 6.27817C19.2993 7.13111 19.7415 7.94696 20.2038 8.7999C20.244 8.87407 20.2676 9.0059 20.271 9.10064C20.3283 9.64855 20.3857 10.1964 20.4798 10.7238C20.5538 11.214 20.8685 11.6179 21.3236 11.7499C21.4574 11.82 21.6648 11.8489 21.8154 11.8614C21.986 11.9109 22.19 11.8451 22.3572 11.7999C22.6347 11.6929 22.7749 11.4211 22.8784 11.1699C22.9118 11.0545 22.9819 10.9186 22.9951 10.7662C23.055 10.3461 22.8907 9.95466 22.6363 9.66206C22.2445 9.20462 21.7827 8.88308 21.3208 8.56154C21.2071 8.52852 21.1266 8.38019 21.0864 8.30602C20.5839 7.37891 20.1015 6.48889 19.599 5.56179C19.4984 5.37637 19.3714 5.49576 19.318 5.574L18.8634 5.97335Z"
        fill="black"
      />
    </svg>
